<?xml version="1.0" standalone="no"?>
<!DOCTYPE svg PUBLIC "-//W3C//DTD SVG 20010904//EN"
 "http://www.w3.org/TR/2001/REC-SVG-20010904/DTD/svg10.dtd">
<svg version="1.0" xmlns="http://www.w3.org/2000/svg"
 width="544.000000pt" height="544.000000pt" viewBox="0 0 544.000000 544.000000"
 preserveAspectRatio="xMidYMid meet">
<metadata>
Created by potrace 1.14, written by Peter Selinger 2001-2017
</metadata>
<g transform="translate(0.000000,544.000000) scale(0.100000,-0.100000)"
fill="#000000" stroke="none">
<path d="M2523 5205 c-305 -40 -573 -155 -775 -334 -65 -58 -192 -235 -238
-334 -73 -156 -117 -322 -139 -529 -12 -108 -16 -520 -5 -585 5 -32 -2 -69
-29 -165 -51 -174 -77 -306 -85 -431 -7 -102 0 -272 13 -324 10 -42 -18 -25
-100 62 -77 81 -116 105 -150 91 -13 -5 -10 -17 20 -76 19 -38 49 -103 65
-145 35 -87 66 -139 106 -176 38 -35 100 -73 146 -89 31 -11 45 -27 82 -89 72
-124 231 -293 329 -351 38 -23 56 -53 93 -163 56 -162 65 -220 71 -448 8 -301
-11 -424 -92 -613 -19 -45 -13 -85 18 -114 12 -11 60 -39 106 -61 119 -57 194
-57 258 2 53 48 35 110 -48 167 -27 18 -49 39 -49 45 0 7 7 32 16 56 22 62 40
157 54 281 23 193 0 569 -41 686 -6 18 -9 35 -7 38 3 2 25 -4 49 -14 207 -89
643 -97 955 -18 55 14 117 32 138 41 21 9 40 15 41 13 2 -2 13 -50 25 -107 28
-138 35 -322 21 -511 -15 -185 -33 -286 -67 -377 -44 -116 -33 -147 60 -182
82 -30 209 -55 248 -47 67 12 107 77 86 137 -9 26 -64 61 -130 82 -15 5 -15
10 -3 51 8 25 24 102 36 173 19 108 22 164 22 358 0 218 -2 237 -31 375 l-31
145 27 20 c15 10 64 55 110 99 68 66 91 97 132 177 59 115 101 237 128 369 11
52 24 94 28 93 5 -1 38 -14 73 -29 56 -23 75 -26 143 -22 67 4 85 9 121 34
108 76 129 222 66 468 -42 167 -167 447 -263 593 -30 45 -33 59 -39 150 l-6
101 49 30 c58 36 129 129 161 210 31 77 34 269 6 350 -46 131 -153 220 -307
256 -18 4 -38 28 -70 81 -58 99 -151 191 -276 275 -275 184 -730 275 -1121
225z m1648 -2334 c10 -41 19 -87 19 -102 0 -40 -17 -79 -35 -79 -18 0 -111 45
-119 58 -5 8 19 283 30 352 6 34 7 32 46 -60 22 -52 48 -128 59 -169z"/>
</g>
</svg>
